<svg width="191" height="232" viewBox="0 0 191 232" fill="none" xmlns="http://www.w3.org/2000/svg">
<mask id="path-1-outside-1_9_91" maskUnits="userSpaceOnUse" x="-1" y="0" width="192" height="232" fill="black">
<rect fill="white" x="-1" width="192" height="232"/>
<path d="M75.6539 150.9V112.2C94.0539 111.2 108.054 108.2 117.654 103.2C127.454 98 132.354 89.5 132.354 77.7C132.354 68.1 128.954 61 122.154 56.4C115.354 51.6 106.554 49.2 95.7539 49.2C85.1539 49.2 75.9539 51.6 68.1539 56.4C60.3539 61 55.8539 68 54.6539 77.4L6.65391 67.5C7.85391 58.1 10.9539 49.6 15.9539 42C20.9539 34.4 27.3539 28 35.1539 22.8C43.1539 17.6 52.4539 13.6 63.0539 10.8C73.6539 7.99998 85.2539 6.59998 97.8539 6.59998C111.054 6.59998 122.954 8.19999 133.554 11.4C144.354 14.4 153.554 18.8 161.154 24.6C168.754 30.2 174.554 37.1 178.554 45.3C182.754 53.3 184.854 62.3 184.854 72.3C184.854 88.3 179.354 101.9 168.354 113.1C157.554 124.3 141.554 131.8 120.354 135.6V150.9H75.6539ZM96.3539 225.3C86.9539 225.3 79.3539 223 73.5539 218.4C67.7539 213.6 64.8539 206.2 64.8539 196.2C64.8539 186.2 67.7539 178.9 73.5539 174.3C79.3539 169.5 86.9539 167.1 96.3539 167.1C105.754 167.1 113.354 169.5 119.154 174.3C124.954 178.9 127.854 186.2 127.854 196.2C127.854 206.2 124.954 213.6 119.154 218.4C113.354 223 105.754 225.3 96.3539 225.3Z"/>
</mask>
<path d="M75.6539 150.9V112.2C94.0539 111.2 108.054 108.2 117.654 103.2C127.454 98 132.354 89.5 132.354 77.7C132.354 68.1 128.954 61 122.154 56.4C115.354 51.6 106.554 49.2 95.7539 49.2C85.1539 49.2 75.9539 51.6 68.1539 56.4C60.3539 61 55.8539 68 54.6539 77.4L6.65391 67.5C7.85391 58.1 10.9539 49.6 15.9539 42C20.9539 34.4 27.3539 28 35.1539 22.8C43.1539 17.6 52.4539 13.6 63.0539 10.8C73.6539 7.99998 85.2539 6.59998 97.8539 6.59998C111.054 6.59998 122.954 8.19999 133.554 11.4C144.354 14.4 153.554 18.8 161.154 24.6C168.754 30.2 174.554 37.1 178.554 45.3C182.754 53.3 184.854 62.3 184.854 72.3C184.854 88.3 179.354 101.9 168.354 113.1C157.554 124.3 141.554 131.8 120.354 135.6V150.9H75.6539ZM96.3539 225.3C86.9539 225.3 79.3539 223 73.5539 218.4C67.7539 213.6 64.8539 206.2 64.8539 196.2C64.8539 186.2 67.7539 178.9 73.5539 174.3C79.3539 169.5 86.9539 167.1 96.3539 167.1C105.754 167.1 113.354 169.5 119.154 174.3C124.954 178.9 127.854 186.2 127.854 196.2C127.854 206.2 124.954 213.6 119.154 218.4C113.354 223 105.754 225.3 96.3539 225.3Z" fill="#EEB359"/>
<path d="M75.6539 150.9H69.6539V156.9H75.6539V150.9ZM75.6539 112.2L75.3283 106.209L69.6539 106.517V112.2H75.6539ZM117.654 103.2L120.426 108.521L120.446 108.511L120.466 108.5L117.654 103.2ZM122.154 56.4L118.694 61.3018L118.743 61.3362L118.792 61.3697L122.154 56.4ZM68.1539 56.4L71.2018 61.5682L71.2504 61.5395L71.2985 61.5099L68.1539 56.4ZM54.6539 77.4L53.4419 83.2763L59.7854 84.5847L60.6056 78.1598L54.6539 77.4ZM6.65391 67.5L0.702208 66.7402L-0.00162764 72.2536L5.44192 73.3763L6.65391 67.5ZM15.9539 42L20.9664 45.2977L20.9664 45.2977L15.9539 42ZM35.1539 22.8L31.884 17.7693L31.8547 17.7883L31.8257 17.8077L35.1539 22.8ZM63.0539 10.8L64.5863 16.601L64.5863 16.601L63.0539 10.8ZM133.554 11.4L131.82 17.144L131.884 17.1632L131.948 17.1811L133.554 11.4ZM161.154 24.6L157.514 29.3697L157.554 29.4003L157.595 29.4303L161.154 24.6ZM178.554 45.3L173.161 47.9305L173.2 48.0104L173.242 48.089L178.554 45.3ZM168.354 113.1L164.073 108.896L164.054 108.915L164.035 108.935L168.354 113.1ZM120.354 135.6L119.295 129.694L114.354 130.58V135.6H120.354ZM120.354 150.9V156.9H126.354V150.9H120.354ZM73.5539 218.4L69.7285 223.022L69.7766 223.062L69.8255 223.101L73.5539 218.4ZM73.5539 174.3L77.2823 179.001L77.3312 178.962L77.3793 178.922L73.5539 174.3ZM119.154 174.3L115.329 178.922L115.377 178.962L115.426 179.001L119.154 174.3ZM119.154 218.4L122.882 223.101L122.931 223.062L122.979 223.022L119.154 218.4ZM81.6539 150.9V112.2H69.6539V150.9H81.6539ZM75.9795 118.191C94.7151 117.173 109.713 114.101 120.426 108.521L114.882 97.8785C106.395 102.299 93.3927 105.227 75.3283 106.209L75.9795 118.191ZM120.466 108.5C126.228 105.443 130.793 101.272 133.877 95.9216C136.95 90.5918 138.354 84.4386 138.354 77.7H126.354C126.354 82.7614 125.308 86.7582 123.481 89.9284C121.665 93.0783 118.879 95.7574 114.842 97.8999L120.466 108.5ZM138.354 77.7C138.354 66.4979 134.264 57.3482 125.516 51.4303L118.792 61.3697C123.644 64.6518 126.354 69.7021 126.354 77.7H138.354ZM125.614 51.4982C117.538 45.7977 107.426 43.2 95.7539 43.2V55.2C105.682 55.2 113.169 57.4023 118.694 61.3018L125.614 51.4982ZM95.7539 43.2C84.2215 43.2 73.8958 45.8214 65.0093 51.29L71.2985 61.5099C78.012 57.3785 86.0864 55.2 95.7539 55.2V43.2ZM65.106 51.2318C55.6245 56.8234 50.1243 65.5004 48.7022 76.6402L60.6056 78.1598C61.5835 70.4996 65.0833 65.1765 71.2018 61.5682L65.106 51.2318ZM55.8659 71.5237L7.8659 61.6237L5.44192 73.3763L53.4419 83.2763L55.8659 71.5237ZM12.6056 68.2598C13.6948 59.7274 16.4898 52.1022 20.9664 45.2977L10.9414 38.7023C5.41806 47.0978 2.01296 56.4726 0.702208 66.7402L12.6056 68.2598ZM20.9664 45.2977C25.5107 38.3904 31.3306 32.56 38.4821 27.7923L31.8257 17.8077C23.3772 23.44 16.3971 30.4096 10.9414 38.7023L20.9664 45.2977ZM38.4238 27.8307C45.8163 23.0255 54.5125 19.262 64.5863 16.601L61.5216 4.99896C50.3953 7.93797 40.4915 12.1744 31.884 17.7693L38.4238 27.8307ZM64.5863 16.601C74.6183 13.951 85.6959 12.6 97.8539 12.6V0.599984C84.812 0.599984 72.6895 2.04893 61.5216 4.99896L64.5863 16.601ZM97.8539 12.6C110.576 12.6 121.878 14.1426 131.82 17.144L135.288 5.65603C124.03 2.25733 111.532 0.599984 97.8539 0.599984V12.6ZM131.948 17.1811C142.137 20.0113 150.617 24.1059 157.514 29.3697L164.794 19.8303C156.491 13.4941 146.571 8.78871 135.16 5.61889L131.948 17.1811ZM157.595 29.4303C164.443 34.4764 169.601 40.6318 173.161 47.9305L183.947 42.6694C179.507 33.5682 173.065 25.9235 164.713 19.7696L157.595 29.4303ZM173.242 48.089C176.943 55.1399 178.854 63.1661 178.854 72.3H190.854C190.854 61.4339 188.565 51.4601 183.866 42.511L173.242 48.089ZM178.854 72.3C178.854 86.7612 173.948 98.8416 164.073 108.896L172.635 117.304C184.76 104.958 190.854 89.8388 190.854 72.3H178.854ZM164.035 108.935C154.391 118.936 139.718 126.033 119.295 129.694L121.413 141.506C143.389 137.567 160.717 129.664 172.673 117.265L164.035 108.935ZM114.354 135.6V150.9H126.354V135.6H114.354ZM120.354 144.9H75.6539V156.9H120.354V144.9ZM96.3539 219.3C87.9363 219.3 81.7633 217.253 77.2823 213.699L69.8255 223.101C76.9445 228.747 85.9715 231.3 96.3539 231.3V219.3ZM77.3793 213.778C73.3757 210.464 70.8539 205.039 70.8539 196.2H58.8539C58.8539 207.361 62.1321 216.736 69.7285 223.022L77.3793 213.778ZM70.8539 196.2C70.8539 187.345 73.3808 182.095 77.2823 179.001L69.8255 169.599C62.1271 175.705 58.8539 185.055 58.8539 196.2H70.8539ZM77.3793 178.922C81.8572 175.217 87.9936 173.1 96.3539 173.1V161.1C85.9142 161.1 76.8506 163.783 69.7285 169.678L77.3793 178.922ZM96.3539 173.1C104.714 173.1 110.851 175.217 115.329 178.922L122.979 169.678C115.857 163.783 106.794 161.1 96.3539 161.1V173.1ZM115.426 179.001C119.327 182.095 121.854 187.345 121.854 196.2H133.854C133.854 185.055 130.581 175.705 122.882 169.599L115.426 179.001ZM121.854 196.2C121.854 205.039 119.332 210.464 115.329 213.778L122.979 223.022C130.576 216.736 133.854 207.361 133.854 196.2H121.854ZM115.426 213.699C110.945 217.253 104.772 219.3 96.3539 219.3V231.3C106.736 231.3 115.763 228.747 122.882 223.101L115.426 213.699Z" fill="#7E4033" mask="url(#path-1-outside-1_9_91)"/>
</svg>
